<svg xmlns="http://www.w3.org/2000/svg" aria-label="DAB Trainer — Simulateur de distributeur de billets" viewBox="0 0 1200 630"><path fill="#1a1a1a" d="M0 0h1200v630H0z"/><g fill="none" stroke="#2a2a2a"><path d="M0 105h1200M0 210h1200M0 420h1200M0 525h1200M200 0v630M400 0v630M800 0v630M1000 0v630"/></g><svg width="240" height="218" x="280" y="200" viewBox="0 0 120 110"><g transform="rotate(-18 60 60)"><rect width="92" height="56" x="14" y="40" fill="#2563eb" rx="7"/><rect width="18" height="14" x="22" y="50" fill="#fbbf24" rx="2"/><rect width="52" height="3.5" x="22" y="72" fill="#fff" fill-opacity=".7" rx="1.8"/><rect width="34" height="3.5" x="22" y="81" fill="#fff" fill-opacity=".5" rx="1.8"/></g><path fill="none" stroke="#10b981" stroke-linecap="round" stroke-linejoin="round" stroke-width="7" d="m24 36 68-26M80 6l12 4-4 12"/></svg><text x="560" y="300" fill="#fff" font-family="Inter, system-ui, -apple-system, 'Segoe UI', Roboto, sans-serif" font-size="96" font-weight="600" letter-spacing="-2">DAB Trainer</text><text x="560" y="358" fill="#9ca3af" font-family="Inter, system-ui, -apple-system, 'Segoe UI', Roboto, sans-serif" font-size="32" font-weight="400">Simulateur de distributeur de billets</text><path stroke="#10b981" stroke-linecap="round" stroke-width="4" d="M560 390h80"/><text x="560" y="430" fill="#d1d5db" font-family="Inter, system-ui, -apple-system, 'Segoe UI', Roboto, sans-serif" font-size="22" font-weight="400">Outil pédagogique open source pour s&apos;entraîner</text><text x="560" y="460" fill="#d1d5db" font-family="Inter, system-ui, -apple-system, 'Segoe UI', Roboto, sans-serif" font-size="22" font-weight="400">à utiliser un distributeur de billets en toute sécurité.</text><text x="600" y="580" fill="#6b7280" font-family="Inter, system-ui, -apple-system, 'Segoe UI', Roboto, sans-serif" font-size="18" font-weight="400" letter-spacing="2" text-anchor="middle">cedric-ruiu.github.io/atm-trainer</text></svg>